<svg xmlns="http://www.w3.org/2000/svg" xmlns:xlink="http://www.w3.org/1999/xlink" id="Capa_1" x="0" y="0" version="1.1" viewBox="0 0 128 128" xml:space="preserve" style="enable-background:new 0 0 128 128"><style type="text/css">.st0{fill:#7296ff}.st1{fill:#fff}.st2{fill:url(#SVGID_1_)}</style><g><path d="M72.6,14.7c-1,0-2,0-3,0.1c0.1,0.2,0.8,1.2,2.4,1.9l15.3,5.4c0,0,11.9,3.5,17.9,14.7c0,0,5.1,7.5,4.3,18.4 c0.1,2,0.1,4.3-0.2,6.6c0,0-1.3,12.1-10.4,19.8c0,0-3.3,3.3-9.2,5.8c2.7-0.1,5.8-0.7,9-2.5c0,0,8.1-3.5,10.6-14.9 c0,0,0.3,2.4-0.3,5.7c0.1-0.4,0.2-0.8,0.3-1.2c0,0,1.1,9.8-6,17.6c0,0-4.7,5.9-12.9,7.8c0,0-7.9,2-15.2-1.2c0,0-6.7-3.6-15.8-0.2 c0,0-7.3,3-10,8.7c0,0-2.1,3.1-2.6,8c0.1,1.2,0.4,2.5,0.8,3.8c0,0-0.3-0.1-0.8-0.4c7.7,4,16.5,6.3,25.8,6.3 c30.6,0,55.4-24.7,55.4-55.2S103.2,14.7,72.6,14.7z" class="st0"/><path d="M43.8,32.3c0,0,13.1-3.6,25.1,5.3c0,0,8.3,5.6,11,15.9c0,0,1.3,5.2,6.6,4.8c0,0,4-0.2,5.4-4.2 c0,0,0.9-2.3,1.2-5.4c0-0.3-0.1-0.6-0.1-0.9c0,0-0.8-8.1-7.7-13.4c0,0-2.8-2.3-6.3-3.3l-12.3-3.9c0,0-7.2-2-7.2-10.3 c0,0,0-0.2,0-0.6c-8.4,2-16,6-22.4,11.4C39,28.4,41.6,29.7,43.8,32.3z" class="st0"/><path d="M59.4,16.9c0,8.2,7.2,10.3,7.2,10.3l12.3,3.9c3.5,1,6.3,3.3,6.3,3.3c6.9,5.3,7.7,13.4,7.7,13.4 c0.1,0.3,0.1,0.6,0.1,0.9c0.2-1.7,0.2-3.5-0.1-5.4c0,0-0.8-8.1-7.7-13.4c0,0-2.8-2.3-6.3-3.3l-12.3-3.9c0,0-5.7-1.6-6.9-7.8 c-0.1,0.6-0.2,1.1-0.2,1.4C59.4,16.7,59.4,16.9,59.4,16.9z" class="st1"/><path d="M90.5,95.6c0,0-7.9,2-15.2-1.2c0,0-6.7-3.6-15.8-0.2c0,0-7.3,3-10,8.7c0,0-3.4,5.2-2.6,12.5 c0.5-4.8,2.6-8,2.6-8c2.7-5.7,10-8.7,10-8.7c9.1-3.4,15.8,0.2,15.8,0.2c7.3,3.3,15.2,1.2,15.2,1.2c8.2-1.9,12.9-7.8,12.9-7.8 c7.1-7.8,6-17.6,6-17.6c-0.1,0.4-0.2,0.8-0.3,1.2c-0.6,3.4-2.1,7.9-5.7,11.9C103.4,87.8,98.7,93.7,90.5,95.6z" class="st1"/><path d="M98.9,77.2c0,0-7,7.1-18.8,8.4c0,0,4.1,2.1,9.7,2c5.9-2.5,9.2-5.8,9.2-5.8c9.1-7.8,10.4-19.8,10.4-19.8 c0.3-2.3,0.4-4.6,0.2-6.6c0,0.7-0.1,1.4-0.2,2.1C109.3,57.3,108,69.4,98.9,77.2z" class="st1"/><linearGradient id="SVGID_1_" x1="78.902" x2="2.109" y1="85.906" y2="7.841" gradientUnits="userSpaceOnUse"><stop offset="0" style="stop-color:#000"/><stop offset=".146" style="stop-color:#040404"/><stop offset=".306" style="stop-color:#121212"/><stop offset=".472" style="stop-color:#272727"/><stop offset=".641" style="stop-color:#464646"/><stop offset=".677" style="stop-color:#4d4d4d"/><stop offset=".72" style="stop-color:#565656"/><stop offset=".793" style="stop-color:#707070"/><stop offset=".886" style="stop-color:#999"/><stop offset=".983" style="stop-color:#ccc"/></linearGradient><path d="M46.8,115.4c-0.8-7.3,2.6-12.5,2.6-12.5c2.7-5.7,10-8.7,10-8.7c9.1-3.4,15.8,0.2,15.8,0.2 c7.3,3.3,15.2,1.2,15.2,1.2c8.2-1.9,12.9-7.8,12.9-7.8c3.6-4,5.1-8.4,5.7-11.9c0.6-3.3,0.3-5.7,0.3-5.7 c-2.5,11.4-10.6,14.9-10.6,14.9c-3.2,1.7-6.3,2.4-9,2.5c-5.6,0.2-9.7-2-9.7-2c11.8-1.3,18.8-8.4,18.8-8.4 c9.1-7.8,10.4-19.8,10.4-19.8c0.1-0.7,0.2-1.4,0.2-2.1c0.8-10.8-4.3-18.4-4.3-18.4c-6.1-11.3-17.9-14.7-17.9-14.7L72,16.8 c-1.6-0.8-2.3-1.8-2.4-1.9c0,0,0,0,0,0c-0.1-0.3-0.3-0.5-0.4-0.7c-0.8-2-0.5-3.6,0.1-4.7c0.9-1.7,2.5-2.5,2.5-2.5l-5-3.9 c-7.8,2.8-7.5,9.5-7.5,9.5c0,0.9,0.1,1.8,0.3,2.5c1.3,6.1,6.9,7.8,6.9,7.8l12.3,3.9c3.5,1,6.3,3.3,6.3,3.3 c6.9,5.3,7.7,13.4,7.7,13.4c0.3,1.9,0.3,3.7,0.1,5.4c-0.3,3.1-1.2,5.4-1.2,5.4c-1.4,4-5.4,4.2-5.4,4.2c-5.3,0.4-6.6-4.8-6.6-4.8 c-2.7-10.3-11-15.9-11-15.9c-12-9-25.1-5.3-25.1-5.3c-2.2-2.6-4.8-3.9-6.8-4.6c-1.7-0.6-3-0.7-3-0.7c-11.1-2.3-18.5,5-18.5,5 C2.8,42.9,0.6,59.1,0.6,59.1c-0.6,3.4-0.7,6.7-0.5,9.6C0.6,79,4.4,86.1,4.4,86.1c7.3,13.8,20,11.2,20,11.2 c3.4,6.9,8.9,11.6,8.9,11.6c6.7,6.3,11.6,9,13.5,9.9c0,0,0.1,0,0.1,0c0.5,0.3,0.8,0.4,0.8,0.4C47.2,117.9,47,116.6,46.8,115.4z" class="st2"/></g></svg>